<?xml version="1.0" encoding="iso-8859-1"?>
<!-- Generator: Adobe Illustrator 19.0.0, SVG Export Plug-In . SVG Version: 6.00 Build 0)  -->
<svg version="1.1" id="Capa_1" xmlns="http://www.w3.org/2000/svg" xmlns:xlink="http://www.w3.org/1999/xlink" x="0px" y="0px"
	 viewBox="0 0 460 460" style="enable-background:new 0 0 460 460;" xml:space="preserve">
<g>
	<path style="fill:#FFD23D;" d="M230.914,271.509l-6.458-35.966L69.208,390.792l0,18.019c0,28.273,22.92,51.193,51.189,51.189
		c28.273,0,51.189-22.916,51.189-51.189v-35.544l95.298-95.298L230.914,271.509z"/>
	<path style="fill:#FFEDAD;" d="M390.792,51.189c0-28.273-22.92-51.193-51.189-51.189c-28.273,0-51.189,22.916-51.189,51.189v35.545
		l-80.541,80.541l6.456,35.968l35.966,6.457c0.001,0.005,140.497-140.492,140.497-140.492V51.189z"/>
	<path style="fill:#FFEDAD;" d="M224.456,235.54l-35.968-6.456l-6.456-35.968l-95.297,95.297H51.189
		C22.916,288.413,0,311.33,0,339.603c-0.004,28.27,22.916,51.189,51.189,51.189h18.019
		C69.208,390.792,224.457,235.543,224.456,235.54z"/>
	<path style="fill:#FFD23D;" d="M408.811,69.208h-18.019L250.296,209.704l6.458,35.965l35.97,6.459l80.542-80.542h35.545
		c28.273,0,51.189-22.917,51.189-51.189C460.004,92.128,437.084,69.208,408.811,69.208z"/>
</g>
<g>
</g>
<g>
</g>
<g>
</g>
<g>
</g>
<g>
</g>
<g>
</g>
<g>
</g>
<g>
</g>
<g>
</g>
<g>
</g>
<g>
</g>
<g>
</g>
<g>
</g>
<g>
</g>
<g>
</g>
</svg>
