<?xml version="1.0" encoding="iso-8859-1"?>
<!-- Generator: Adobe Illustrator 19.0.0, SVG Export Plug-In . SVG Version: 6.00 Build 0)  -->
<svg version="1.1" id="Layer_1" xmlns="http://www.w3.org/2000/svg" xmlns:xlink="http://www.w3.org/1999/xlink" x="0px" y="0px"
	 viewBox="0 0 512.001 512.001" style="enable-background:new 0 0 512.001 512.001;" xml:space="preserve">
<polygon style="fill:#FFD652;" points="421.366,504.05 387.445,482.849 353.524,504.05 319.602,482.849 285.681,504.05 256,482.849 
	226.319,504.05 192.397,482.849 158.476,504.05 124.555,482.849 90.633,504.05 90.633,253.88 90.633,7.95 421.366,7.95 
	421.366,253.88 "/>
<polygon style="fill:#E5E5E5;" points="421.366,253.88 421.366,7.95 90.633,7.95 90.633,253.88 90.633,254.41 421.366,254.41 "/>
<polygon style="fill:#FFD652;" points="90.633,254.41 90.633,504.05 124.555,482.849 158.476,504.05 192.397,482.849 
	226.319,504.05 256,482.849 285.681,504.05 319.602,482.849 353.524,504.05 387.445,482.849 421.366,504.05 421.366,254.41 "/>
<g>
	<path style="fill:#F2F2F2;" d="M421.366,0H90.633c-4.391,0-7.95,3.56-7.95,7.95V504.05c0,2.891,1.568,5.552,4.096,6.954
		c2.528,1.4,5.617,1.32,8.068-0.212l29.708-18.568l29.708,18.568c2.579,1.612,5.849,1.612,8.427,0l29.708-18.568l29.708,18.568
		c2.729,1.705,6.216,1.598,8.834-0.272l25.06-17.9l25.06,17.9c1.379,0.985,2.999,1.481,4.622,1.481c1.459,0,2.921-0.401,4.214-1.208
		l29.708-18.568l29.707,18.568c2.579,1.612,5.85,1.612,8.427,0l29.708-18.568l29.708,18.568c2.45,1.532,5.539,1.612,8.068,0.212
		c2.528-1.401,4.096-4.063,4.096-6.954V7.95C429.317,3.56,425.757,0,421.366,0z"/>
	<path style="fill:#F2F2F2;" d="M429.317,7.95c0-4.391-3.56-7.95-7.95-7.95H90.633c-4.391,0-7.95,3.56-7.95,7.95v244.87h346.634
		V7.95z"/>
</g>
<path style="fill:#FFD652;" d="M82.683,252.82v251.004c0,2.306,0.887,4.569,2.6,6.111c2.709,2.439,6.602,2.706,9.564,0.855
	l26.899-16.811c1.718-1.074,3.9-1.074,5.618,0l26.899,16.811c2.578,1.611,5.849,1.611,8.427,0l26.899-16.811
	c1.718-1.074,3.9-1.074,5.618,0l26.899,16.811c2.729,1.705,6.216,1.598,8.834-0.272l21.979-15.699c1.842-1.317,4.319-1.317,6.161,0
	l21.979,15.699c1.379,0.985,2.999,1.481,4.622,1.481c1.459,0,2.921-0.401,4.214-1.208l26.901-16.811c1.718-1.074,3.9-1.074,5.618,0
	l26.897,16.811c2.579,1.612,5.85,1.612,8.427,0l26.899-16.811c1.718-1.074,3.9-1.074,5.618,0l26.899,16.811
	c2.958,1.849,6.845,1.584,9.557-0.849c1.716-1.539,2.608-3.802,2.608-6.108V252.819H82.683V252.82z"/>
<path style="fill:#CCCCCC;" d="M90.633,0c-4.391,0-7.95,3.56-7.95,7.95v244.87h24.911V0H90.633z"/>
<path style="fill:#FB9D46;" d="M82.683,252.82v251.004c0,2.306,0.887,4.569,2.6,6.111c2.709,2.439,6.602,2.706,9.564,0.855
	l12.747-7.967V252.82H82.683z"/>
<path style="fill:#B2B2B2;" d="M192.678,151.626l-43.022-28.682c-13.09-8.726-6.913-29.131,8.821-29.131h52.587
	c7.04,0,13.242-4.629,15.243-11.378l14.449-48.707c4.501-15.171,25.987-15.171,30.488,0l14.449,48.707
	c2.002,6.749,8.204,11.378,15.243,11.378h52.587c15.469,0,21.829,19.848,9.242,28.839l-40.932,29.237
	c-5.515,3.939-7.927,10.943-6.007,17.443l14.875,50.362c4.385,14.85-12.882,26.571-25.064,17.014l-39.807-31.23
	c-5.766-4.523-13.876-4.52-19.638,0.007l-39.729,31.216c-12.516,9.834-30.116-2.785-24.818-17.795l17.209-48.759
	C201.273,163.289,198.731,155.661,192.678,151.626z"/>
<path style="fill:#FF7452;" d="M360.686,106.263c-1.352-2.824-4.338-4.499-7.469-4.499h-64.148c-3.52,0-6.621-2.314-7.622-5.689
	l-17.826-60.084c-1.002-3.374-4.102-5.689-7.622-5.689c-3.519,0-6.621,2.315-7.622,5.689l-17.826,60.084
	c-1.001,3.374-4.102,5.689-7.622,5.689h-64.149c-3.181,0-6.208,1.733-7.529,4.627c-1.649,3.613-0.4,7.797,2.814,9.938l53.313,35.542
	c3.026,2.017,4.297,5.831,3.087,9.262l-21.224,60.134c-1.071,3.033-0.412,6.504,1.93,8.708c2.915,2.741,7.316,2.88,10.377,0.476
	l49.545-38.929c2.881-2.264,6.937-2.265,9.819-0.003l49.629,38.936c1.436,1.127,3.17,1.695,4.908,1.695
	c1.638,0,3.28-0.505,4.679-1.523c2.778-2.021,3.83-5.685,2.857-8.98l-17.993-60.922c-0.96-3.25,0.246-6.751,3.004-8.721
	l50.147-35.82C361.252,113.964,362.382,109.805,360.686,106.263z"/>
<path style="fill:#E24642;" d="M263.623,35.991c-1.002-3.374-4.102-5.689-7.622-5.689c-3.519,0-6.621,2.315-7.622,5.689
	l-17.826,60.084c-1.001,3.374-4.102,5.689-7.622,5.689h-64.149c-3.181,0-6.208,1.733-7.529,4.627
	c-1.649,3.613-0.4,7.797,2.814,9.938l53.313,35.542c3.026,2.017,4.297,5.831,3.087,9.262l-21.224,60.134
	c-1.071,3.033-0.412,6.504,1.93,8.708c2.915,2.741,7.316,2.879,10.377,0.476l35.411-27.823l40.964-118.425L263.623,35.991z"/>
<g>
	<path style="fill:#FF7452;" d="M106.534,261.83H90.633c-4.391,0-7.95-3.56-7.95-7.95c0-4.391,3.56-7.95,7.95-7.95h15.901
		c4.391,0,7.95,3.56,7.95,7.95C114.484,258.271,110.925,261.83,106.534,261.83z"/>
	<path style="fill:#FF7452;" d="M372.251,261.83h-33.214c-4.391,0-7.95-3.56-7.95-7.95c0-4.391,3.56-7.95,7.95-7.95h33.214
		c4.391,0,7.95,3.56,7.95,7.95C380.202,258.271,376.642,261.83,372.251,261.83z M305.822,261.83h-33.214
		c-4.391,0-7.95-3.56-7.95-7.95c0-4.391,3.56-7.95,7.95-7.95h33.214c4.391,0,7.95,3.56,7.95,7.95
		C313.772,258.271,310.213,261.83,305.822,261.83z M239.393,261.83h-33.215c-4.391,0-7.95-3.56-7.95-7.95
		c0-4.391,3.56-7.95,7.95-7.95h33.214c4.391,0,7.95,3.56,7.95,7.95C247.343,258.271,243.784,261.83,239.393,261.83z M172.964,261.83
		h-33.214c-4.391,0-7.95-3.56-7.95-7.95c0-4.391,3.56-7.95,7.95-7.95h33.214c4.391,0,7.95,3.56,7.95,7.95
		C180.914,258.271,177.354,261.83,172.964,261.83z"/>
	<path style="fill:#FF7452;" d="M421.366,261.83h-15.901c-4.391,0-7.95-3.56-7.95-7.95c0-4.391,3.56-7.95,7.95-7.95h15.901
		c4.391,0,7.95,3.56,7.95,7.95C429.317,258.271,425.757,261.83,421.366,261.83z"/>
</g>
<g>
	<path style="fill:#E24642;" d="M285.681,318.012H263.95v-9.01c0-4.391-3.56-7.95-7.95-7.95s-7.95,3.56-7.95,7.95v9.01h-6.89
		c-10.228,0-18.551,8.322-18.551,18.551v16.961c0,10.228,8.322,18.551,18.551,18.551h6.89v22.261h-21.731
		c-4.391,0-7.95,3.56-7.95,7.95c0,4.391,3.56,7.95,7.95,7.95h21.731v9.01c0,4.391,3.56,7.95,7.95,7.95s7.95-3.56,7.95-7.95v-9.01
		h6.89c10.228,0,18.551-8.322,18.551-18.551v-16.961c0-10.228-8.322-18.551-18.551-18.551h-6.89v-22.261h21.731
		c4.391,0,7.95-3.56,7.95-7.95S290.072,318.012,285.681,318.012z M270.84,372.075c1.461,0,2.65,1.189,2.65,2.65v16.961
		c0,1.461-1.189,2.65-2.65,2.65h-6.89v-22.261H270.84z M248.05,356.174h-6.89c-1.461,0-2.65-1.189-2.65-2.65v-16.961
		c0-1.461,1.189-2.65,2.65-2.65h6.89V356.174z"/>
	<path style="fill:#E24642;" d="M391.685,333.913c4.391,0,7.95-3.56,7.95-7.95s-3.56-7.95-7.95-7.95h-21.731v-9.01
		c0-4.391-3.56-7.95-7.95-7.95s-7.95,3.56-7.95,7.95v9.01h-6.89c-10.228,0-18.551,8.322-18.551,18.551v16.961
		c0,10.228,8.322,18.551,18.551,18.551h6.89v22.261h-21.731c-4.391,0-7.95,3.56-7.95,7.95c0,4.391,3.56,7.95,7.95,7.95h21.731v9.01
		c0,4.391,3.56,7.95,7.95,7.95s7.95-3.56,7.95-7.95v-9.01h6.89c10.228,0,18.551-8.322,18.551-18.551v-16.961
		c0-10.228-8.322-18.551-18.551-18.551h-6.89v-22.261H391.685z M376.845,372.075c1.461,0,2.65,1.189,2.65,2.65v16.961
		c0,1.461-1.189,2.65-2.65,2.65h-6.89v-22.261H376.845z M354.054,356.174h-6.89c-1.461,0-2.65-1.189-2.65-2.65v-16.961
		c0-1.461,1.189-2.65,2.65-2.65h6.89V356.174z"/>
	<path style="fill:#E24642;" d="M179.677,318.012h-21.731v-9.01c0-4.391-3.56-7.95-7.95-7.95c-4.391,0-7.95,3.56-7.95,7.95v9.01
		h-6.89c-10.228,0-18.551,8.322-18.551,18.551v16.961c0,10.228,8.322,18.551,18.551,18.551h6.89v22.261h-21.731
		c-4.391,0-7.95,3.56-7.95,7.95c0,4.391,3.56,7.95,7.95,7.95h21.731v9.01c0,4.391,3.56,7.95,7.95,7.95c4.391,0,7.95-3.56,7.95-7.95
		v-9.01h6.89c10.228,0,18.551-8.322,18.551-18.551v-16.961c0-10.228-8.322-18.551-18.551-18.551h-6.89v-22.261h21.731
		c4.391,0,7.95-3.56,7.95-7.95S184.068,318.012,179.677,318.012z M164.836,372.075c1.461,0,2.65,1.189,2.65,2.65v16.961
		c0,1.461-1.189,2.65-2.65,2.65h-6.89v-22.261H164.836z M142.045,356.174h-6.89c-1.461,0-2.65-1.189-2.65-2.65v-16.961
		c0-1.461,1.189-2.65,2.65-2.65h6.89V356.174z"/>
</g>
<g>
</g>
<g>
</g>
<g>
</g>
<g>
</g>
<g>
</g>
<g>
</g>
<g>
</g>
<g>
</g>
<g>
</g>
<g>
</g>
<g>
</g>
<g>
</g>
<g>
</g>
<g>
</g>
<g>
</g>
</svg>
